# xmcd
#
# Track frame offsets:
#	150
#	14585
#	27709
#	47494
#	59026
#	73718
#
# Disc length: 1170 seconds
#
# Revision: 2
# Processed by: cddbd v1.5.2PL0 Copyright (c) Steve Scherf et al.
# Submitted via: EasyCDDAExtractor 5.0.6
#
DISCID=57049006
DTITLE=Love Of Diagrams - E.P.
DYEAR=2006
DGENRE=Indie
TTITLE0=Pace Or The Patience
TTITLE1=The Pyramid
TTITLE2=Revision
TTITLE3=Theme
TTITLE4=Cool (Live)
TTITLE5=Shadow (Live)
EXTD=
EXTT0=
EXTT1=
EXTT2=
EXTT3=
EXTT4=
EXTT5=
PLAYORDER=
